<svg width="500" height="500" viewBox="0 0 500 500" fill="none" xmlns="http://www.w3.org/2000/svg">
<path d="M500 382.4H0V382.65H500V382.4Z" fill="#EBEBEB"/>
<path d="M237.001 337.8H43.9109C42.3983 337.797 40.9485 337.195 39.8798 336.124C38.8112 335.054 38.2109 333.603 38.2109 332.09V60.66C38.2241 59.156 38.8301 57.718 39.8974 56.6582C40.9646 55.5985 42.4069 55.0026 43.9109 55H237.001C238.515 55 239.968 55.6016 241.039 56.6724C242.109 57.7433 242.711 59.1956 242.711 60.71V332.09C242.711 333.604 242.109 335.057 241.039 336.128C239.968 337.198 238.515 337.8 237.001 337.8V337.8ZM43.9109 55.2C42.4646 55.2026 41.0784 55.7791 40.0566 56.8027C39.0348 57.8264 38.4609 59.2136 38.4609 60.66V332.09C38.4609 333.536 39.0348 334.924 40.0566 335.947C41.0784 336.971 42.4646 337.547 43.9109 337.55H237.001C238.448 337.547 239.835 336.971 240.859 335.948C241.882 334.924 242.458 333.537 242.461 332.09V60.66C242.458 59.2127 241.882 57.8255 240.859 56.8021C239.835 55.7787 238.448 55.2026 237.001 55.2H43.9109Z" fill="#EBEBEB"/>
<path d="M453.31 337.8H260.21C258.696 337.797 257.246 337.195 256.175 336.125C255.105 335.054 254.503 333.604 254.5 332.09V60.66C254.516 59.1551 255.124 57.7171 256.193 56.6576C257.262 55.5981 258.705 55.0025 260.21 55H453.31C454.812 55.0052 456.252 55.6022 457.317 56.6617C458.382 57.7212 458.987 59.1578 459 60.66V332.09C459 333.601 458.401 335.05 457.335 336.121C456.268 337.191 454.821 337.795 453.31 337.8V337.8ZM260.21 55.2C258.763 55.2026 257.375 55.7787 256.352 56.8021C255.329 57.8255 254.753 59.2127 254.75 60.66V332.09C254.753 333.537 255.329 334.924 256.352 335.948C257.375 336.971 258.763 337.547 260.21 337.55H453.31C454.757 337.547 456.145 336.971 457.168 335.948C458.191 334.924 458.767 333.537 458.77 332.09V60.66C458.767 59.2127 458.191 57.8255 457.168 56.8021C456.145 55.7787 454.757 55.2026 453.31 55.2H260.21Z" fill="#EBEBEB"/>
<path d="M449.9 391.92H418.33V392.17H449.9V391.92Z" fill="#EBEBEB"/>
<path d="M335.34 389.211H301.93V389.461H335.34V389.211Z" fill="#EBEBEB"/>
<path d="M459.02 401.211H396.59V401.461H459.02V401.211Z" fill="#EBEBEB"/>
<path d="M71.6909 399.529H52.4609V399.779H71.6909V399.529Z" fill="#EBEBEB"/>
<path d="M110.89 399.529H80.5996V399.779H110.89V399.529Z" fill="#EBEBEB"/>
<path d="M244.14 395.311H189.58V395.561H244.14V395.311Z" fill="#EBEBEB"/>
<path d="M272.259 118.131L215.279 175.121V364.911H415.269V118.131H272.259Z" fill="white"/>
<path d="M415.27 365.45H215.27C215.127 365.45 214.99 365.393 214.889 365.292C214.787 365.191 214.73 365.053 214.73 364.91V175.12C214.73 175.049 214.745 174.979 214.772 174.914C214.799 174.849 214.84 174.79 214.89 174.74L271.89 117.74C271.993 117.641 272.128 117.584 272.27 117.58H415.27C415.341 117.58 415.412 117.594 415.477 117.621C415.543 117.648 415.602 117.688 415.652 117.738C415.702 117.788 415.742 117.848 415.769 117.913C415.797 117.979 415.81 118.049 415.81 118.12V364.91C415.81 364.981 415.797 365.051 415.769 365.117C415.742 365.182 415.702 365.242 415.652 365.292C415.602 365.342 415.543 365.382 415.477 365.409C415.412 365.436 415.341 365.45 415.27 365.45V365.45ZM215.82 364.38H414.73V118.67H272.49L215.82 175.34V364.38Z" fill="#DBD8E9"/>
<path d="M215.279 175.121L275.069 182.831L272.259 118.131L215.279 175.121Z" fill="#E6E6E6"/>
<path d="M215.279 175.121H272.259V118.131L215.279 175.121Z" fill="white"/>
<path d="M272.26 175.649H215.26C215.154 175.65 215.049 175.619 214.96 175.56C214.871 175.501 214.802 175.418 214.76 175.319C214.719 175.222 214.708 175.114 214.73 175.011C214.751 174.907 214.804 174.812 214.88 174.739L271.88 117.739C271.957 117.665 272.053 117.615 272.158 117.593C272.262 117.572 272.371 117.581 272.47 117.619C272.568 117.662 272.651 117.732 272.709 117.82C272.768 117.909 272.799 118.013 272.8 118.119V175.119C272.798 175.261 272.74 175.396 272.639 175.495C272.538 175.594 272.402 175.649 272.26 175.649V175.649ZM216.58 174.579H271.73V119.429L216.58 174.579Z" fill="#DBD8E9"/>
<path d="M326.841 257.191L360.841 223.191C361.601 222.431 362.203 221.529 362.614 220.537C363.026 219.544 363.237 218.48 363.237 217.406C363.237 216.331 363.026 215.268 362.614 214.275C362.203 213.282 361.601 212.381 360.841 211.621C360.081 210.861 359.179 210.259 358.187 209.847C357.194 209.436 356.13 209.225 355.056 209.225C353.982 209.225 352.918 209.436 351.925 209.847C350.933 210.259 350.031 210.861 349.271 211.621L315.271 245.621L281.271 211.621C279.737 210.087 277.656 209.225 275.486 209.225C273.316 209.225 271.235 210.087 269.701 211.621C268.167 213.155 267.305 215.236 267.305 217.406C267.305 219.576 268.167 221.657 269.701 223.191L303.701 257.191L269.701 291.191C268.167 292.725 267.305 294.806 267.305 296.976C267.305 299.146 268.167 301.227 269.701 302.761C271.235 304.295 273.316 305.157 275.486 305.157C277.656 305.157 279.737 304.295 281.271 302.761L315.271 268.761L349.271 302.761C350.805 304.295 352.886 305.157 355.056 305.157C357.226 305.157 359.307 304.295 360.841 302.761C362.375 301.227 363.237 299.146 363.237 296.976C363.237 294.806 362.375 292.725 360.841 291.191L326.841 257.191Z" fill="#F0F0F0"/>
<path d="M223 229.001C221.082 230.917 218.482 231.993 215.77 231.993C213.059 231.993 210.459 230.917 208.54 229.001L175.73 196.181L190.19 181.721L223 214.581C224.905 216.497 225.973 219.089 225.973 221.791C225.973 224.492 224.905 227.084 223 229.001V229.001Z" fill="#F0F0F0"/>
<path d="M175.725 196.244L190.185 181.784L191.521 183.12C192.907 184.506 193.686 186.386 193.686 188.346C193.686 190.306 192.907 192.185 191.521 193.571L187.512 197.581C186.126 198.966 184.246 199.745 182.287 199.745C180.327 199.745 178.447 198.966 177.061 197.581L175.725 196.244V196.244Z" fill="#DBD8E9"/>
<path d="M84.7095 90.7095C74.7872 100.642 68.0322 113.293 65.2985 127.064C62.5648 140.834 63.975 155.106 69.3509 168.076C74.7269 181.045 83.8271 192.13 95.5015 199.928C107.176 207.726 120.9 211.889 134.939 211.889C148.979 211.889 162.703 207.726 174.377 199.928C186.052 192.13 195.152 181.045 200.528 168.076C205.904 155.106 207.314 140.834 204.58 127.064C201.847 113.293 195.092 100.642 185.169 90.7095C178.576 84.1089 170.745 78.8727 162.127 75.3001C153.508 71.7275 144.269 69.8887 134.939 69.8887C125.61 69.8887 116.371 71.7275 107.752 75.3001C99.1336 78.8727 91.3034 84.1089 84.7095 90.7095V90.7095ZM181.069 187.07C171.947 196.192 160.324 202.404 147.671 204.921C135.017 207.438 121.902 206.146 109.983 201.209C98.0635 196.272 87.876 187.911 80.7085 177.184C73.541 166.457 69.7153 153.846 69.7153 140.945C69.7153 128.043 73.541 115.432 80.7085 104.705C87.876 93.9778 98.0635 85.6171 109.983 80.68C121.902 75.7428 135.017 74.451 147.671 76.9678C160.324 79.4846 171.947 85.6971 181.069 94.8195C187.127 100.877 191.932 108.068 195.21 115.982C198.488 123.896 200.175 132.378 200.175 140.945C200.175 149.511 198.488 157.993 195.21 165.907C191.932 173.821 187.127 181.012 181.069 187.07V187.07Z" fill="#DBD8E9"/>
<path d="M172.26 180.65C171.79 180.648 171.331 180.508 170.941 180.247C170.551 179.985 170.247 179.614 170.067 179.18C169.887 178.745 169.84 178.268 169.931 177.807C170.023 177.346 170.249 176.922 170.58 176.59C180.017 167.127 185.316 154.308 185.316 140.945C185.316 127.581 180.017 114.762 170.58 105.3C170.338 105.084 170.142 104.821 170.005 104.528C169.868 104.234 169.792 103.915 169.782 103.591C169.773 103.266 169.83 102.944 169.949 102.642C170.069 102.341 170.249 102.067 170.478 101.838C170.708 101.608 170.981 101.428 171.283 101.309C171.584 101.189 171.907 101.132 172.231 101.142C172.555 101.151 172.874 101.227 173.168 101.364C173.462 101.501 173.725 101.697 173.94 101.94C184.268 112.292 190.067 126.317 190.067 140.94C190.067 155.562 184.268 169.588 173.94 179.94C173.721 180.163 173.459 180.34 173.171 180.462C172.883 180.584 172.573 180.648 172.26 180.65V180.65Z" fill="#DBD8E9"/>
<path d="M83.5791 155.531C83.044 155.531 82.5245 155.351 82.1051 155.018C81.6857 154.686 81.391 154.222 81.2691 153.701C79.5394 146.376 79.3213 138.775 80.628 131.363C81.9347 123.951 84.7389 116.883 88.8691 110.591C89.2166 110.06 89.7605 109.689 90.3812 109.56C91.002 109.431 91.6487 109.553 92.1791 109.901C92.7096 110.248 93.0802 110.792 93.2096 111.413C93.339 112.033 93.2166 112.68 92.8691 113.211C89.0875 118.958 86.5166 125.416 85.3131 132.19C84.1096 138.964 84.2988 145.912 85.8691 152.611C85.9434 152.914 85.9566 153.229 85.9081 153.538C85.8596 153.846 85.7504 154.142 85.5866 154.408C85.4229 154.674 85.208 154.905 84.9544 155.088C84.7008 155.27 84.4134 155.4 84.1091 155.471C83.9349 155.508 83.7574 155.529 83.5791 155.531V155.531Z" fill="#DBD8E9"/>
<path d="M97.6201 180.65C96.9894 180.648 96.3852 180.396 95.9401 179.95C91.6564 175.682 88.1084 170.735 85.4401 165.31C85.3022 165.03 85.2207 164.726 85.2004 164.414C85.18 164.103 85.2212 163.791 85.3215 163.496C85.4217 163.201 85.5792 162.928 85.7849 162.693C85.9905 162.459 86.2403 162.267 86.5201 162.13C86.7998 161.992 87.1039 161.91 87.4151 161.89C87.7263 161.869 88.0384 161.911 88.3337 162.011C88.629 162.111 88.9017 162.269 89.1361 162.474C89.3705 162.68 89.5622 162.93 89.7001 163.21C92.1466 168.165 95.3897 172.685 99.3001 176.59C99.7446 177.036 99.9942 177.64 99.9942 178.27C99.9942 178.899 99.7446 179.503 99.3001 179.95C98.8531 180.393 98.25 180.645 97.6201 180.65V180.65Z" fill="#DBD8E9"/>
<path d="M211.032 320.406L220.38 329.753L198.672 351.462C197.562 352.572 196.056 353.196 194.486 353.196C192.916 353.196 191.41 352.572 190.3 351.462L189.317 350.479C188.207 349.369 187.583 347.863 187.583 346.293C187.583 344.723 188.207 343.217 189.317 342.107L211.025 320.398L211.032 320.406Z" fill="#F0F0F0"/>
<path d="M211.047 320.424L220.381 329.758L219.936 330.204C218.929 331.211 217.563 331.776 216.139 331.776C214.714 331.776 213.348 331.211 212.341 330.204L210.588 328.45C209.581 327.443 209.015 326.077 209.015 324.653C209.015 323.229 209.581 321.863 210.588 320.856L211.033 320.41L211.047 320.424Z" fill="#DBD8E9"/>
<path d="M284.35 269.699L262.45 291.589C260.019 294.194 258.695 297.642 258.758 301.204C258.821 304.767 260.265 308.165 262.785 310.684C265.306 313.202 268.706 314.642 272.269 314.701C275.831 314.76 279.277 313.433 281.88 310.999L290.74 302.149C292.605 290.916 290.335 279.387 284.35 269.699Z" fill="#F0F0F0"/>
<path d="M292.601 290.82C291.973 281.755 288.672 273.079 283.114 265.89C277.555 258.702 269.99 253.323 261.374 250.434C252.759 247.545 243.48 247.276 234.712 249.662C225.944 252.047 218.08 256.978 212.114 263.833C206.149 270.688 202.351 279.158 201.2 288.172C200.049 297.186 201.597 306.338 205.648 314.472C209.699 322.606 216.072 329.356 223.959 333.868C231.847 338.38 240.896 340.451 249.961 339.82C262.112 338.974 273.43 333.337 281.426 324.148C289.422 314.96 293.441 302.971 292.601 290.82ZM204.691 296.94C204.111 288.617 206.013 280.31 210.155 273.068C214.298 265.826 220.494 259.976 227.962 256.256C235.429 252.536 243.832 251.114 252.108 252.17C260.384 253.227 268.16 256.713 274.454 262.189C280.748 267.665 285.277 274.884 287.468 282.934C289.659 290.984 289.414 299.503 286.763 307.413C284.112 315.323 279.175 322.27 272.576 327.375C265.978 332.479 258.013 335.512 249.691 336.09C238.532 336.865 227.522 333.175 219.083 325.834C210.644 318.492 205.467 308.099 204.691 296.94Z" fill="#DBD8E9"/>
<path d="M223.379 320.91C219.84 317.842 216.941 314.106 214.85 309.915C212.758 305.725 211.514 301.163 211.189 296.49C211.166 296.284 211.185 296.075 211.245 295.876C211.305 295.677 211.404 295.492 211.538 295.332C211.671 295.173 211.835 295.042 212.02 294.947C212.205 294.853 212.407 294.797 212.615 294.783C212.822 294.769 213.03 294.797 213.226 294.865C213.422 294.933 213.603 295.041 213.756 295.181C213.91 295.32 214.034 295.49 214.12 295.679C214.207 295.868 214.254 296.072 214.259 296.28C214.872 304.892 218.872 312.91 225.383 318.579C231.893 324.248 240.385 327.107 248.999 326.53C249.405 326.502 249.805 326.637 250.112 326.904C250.418 327.171 250.606 327.549 250.634 327.955C250.662 328.361 250.528 328.761 250.26 329.068C249.993 329.374 249.615 329.562 249.209 329.59C244.544 329.914 239.861 329.314 235.429 327.825C230.997 326.335 226.902 323.985 223.379 320.91V320.91Z" fill="#DBD8E9"/>
<path d="M278.641 286C278.413 285.803 278.249 285.542 278.171 285.25C276.967 280.97 274.903 276.981 272.106 273.525C269.309 270.069 265.836 267.219 261.901 265.15C261.557 264.952 261.302 264.629 261.191 264.248C261.079 263.867 261.119 263.457 261.303 263.105C261.486 262.752 261.798 262.485 262.174 262.357C262.55 262.229 262.961 262.252 263.321 262.42C267.628 264.685 271.429 267.804 274.491 271.586C277.553 275.369 279.812 279.736 281.131 284.42C281.186 284.615 281.201 284.818 281.177 285.018C281.153 285.219 281.089 285.412 280.989 285.588C280.89 285.764 280.757 285.918 280.597 286.042C280.438 286.166 280.256 286.257 280.061 286.31C279.817 286.378 279.56 286.385 279.313 286.331C279.065 286.277 278.835 286.163 278.641 286V286Z" fill="#DBD8E9"/>
<path d="M243.391 261.13C243.085 260.859 242.898 260.478 242.871 260.07C242.843 259.665 242.977 259.265 243.243 258.958C243.509 258.65 243.886 258.461 244.291 258.43C248.191 258.159 252.109 258.527 255.891 259.52C256.088 259.572 256.273 259.662 256.435 259.785C256.597 259.909 256.733 260.063 256.836 260.239C256.938 260.415 257.005 260.609 257.033 260.811C257.06 261.013 257.048 261.218 256.996 261.415C256.944 261.612 256.854 261.797 256.73 261.959C256.607 262.121 256.453 262.257 256.277 262.36C256.101 262.463 255.907 262.53 255.705 262.557C255.503 262.585 255.298 262.572 255.101 262.52C251.65 261.607 248.072 261.269 244.511 261.52C244.101 261.54 243.699 261.401 243.391 261.13V261.13Z" fill="#DBD8E9"/>
<path d="M249.999 427.56C357.082 427.56 443.889 422.492 443.889 416.24C443.889 409.988 357.082 404.92 249.999 404.92C142.917 404.92 56.1094 409.988 56.1094 416.24C56.1094 422.492 142.917 427.56 249.999 427.56Z" fill="#F5F5F5"/>
<path d="M137.818 145.879C129.758 153.989 143.458 166.579 134.408 172.359C141.798 176.069 167.698 180.779 174.408 166.189C169.518 162.389 172.918 153.049 168.408 144.079C161.658 130.779 129.758 136.669 137.818 145.879Z" fill="#18113C"/>
<path d="M138.55 145.669C136.04 145.249 127.55 149.469 133.87 160.799C138.96 169.959 134.72 170.609 134.72 170.609C134.72 170.609 139.72 170.749 136.72 163.939C133.54 156.669 132.05 149.129 138.55 145.669Z" fill="#18113C"/>
<path d="M197.999 217.61C197.69 217.044 197.171 216.622 196.553 216.435C195.936 216.248 195.27 216.311 194.699 216.61L194.109 216.92C193.919 217.02 193.559 217.26 193.269 217.43C192.979 217.6 192.639 217.79 192.319 217.95C191.688 218.267 191.037 218.541 190.369 218.77C189.133 219.218 187.833 219.464 186.519 219.5C185.312 219.514 184.111 219.321 182.969 218.93C182.243 218.661 181.544 218.326 180.879 217.93C180.019 216.03 179.199 214.11 178.499 212.13C177.649 209.82 176.899 207.46 176.239 205.07C175.579 202.68 174.999 200.26 174.519 197.83C174.269 196.62 174.049 195.4 173.849 194.19L173.579 192.38C173.489 191.8 173.409 191.14 173.359 190.68V190.48C173.226 189.154 172.572 187.935 171.541 187.091C170.509 186.247 169.185 185.847 167.859 185.98C166.533 186.113 165.314 186.767 164.47 187.798C163.626 188.83 163.226 190.154 163.359 191.48C163.429 192.33 163.489 192.98 163.579 193.69C163.669 194.4 163.769 195.08 163.869 195.77C164.089 197.15 164.339 198.51 164.619 199.87C165.175 202.572 165.876 205.243 166.719 207.87C167.109 209.19 167.589 210.49 168.039 211.8C168.489 213.11 169.039 214.39 169.609 215.66C170.7 218.226 171.939 220.727 173.319 223.15L173.439 223.37C173.798 224.021 174.336 224.555 174.989 224.91C176.879 225.94 178.921 226.663 181.039 227.05C183.214 227.434 185.443 227.387 187.599 226.91C190.643 226.204 193.438 224.687 195.689 222.52C196.059 222.18 196.409 221.83 196.689 221.46C196.969 221.09 197.309 220.74 197.689 220.22C197.982 219.859 198.167 219.422 198.222 218.96C198.277 218.498 198.199 218.03 197.999 217.61Z" fill="#FF8B7B"/>
<path d="M204.649 208.249H204.359C203.402 208.229 202.453 208.43 201.586 208.835C200.719 209.241 199.957 209.841 199.359 210.589L194.529 216.649V220.789C198.409 222.329 203.329 218.179 203.329 218.179L205.819 217.549C206.657 217.34 207.388 216.828 207.87 216.111C208.352 215.395 208.552 214.525 208.429 213.669L208.069 211.239C207.952 210.414 207.542 209.658 206.914 209.109C206.287 208.561 205.483 208.256 204.649 208.249V208.249Z" fill="#FF8B7B"/>
<path d="M173.229 184.88C176.459 188.2 176.659 198.11 176.659 198.11L163.739 208.51C163.739 208.51 158.429 193.81 161.369 188.62C163.859 184.22 169.109 180.65 173.229 184.88Z" fill="#754FFE"/>
<g opacity="0.2">
<path opacity="0.2" d="M173.229 184.88C176.459 188.2 176.659 198.11 176.659 198.11L163.739 208.51C163.739 208.51 158.429 193.81 161.369 188.62C163.859 184.22 169.109 180.65 173.229 184.88Z" fill="white"/>
</g>
<path d="M151.85 407.67L158.99 408.45L159.97 389.05L152.83 388.26L151.85 407.67Z" fill="#FF8B7B"/>
<path d="M160.159 403.789H151.769C151.6 403.784 151.435 403.845 151.31 403.958C151.185 404.072 151.109 404.231 151.099 404.399L150.539 412.329C150.539 412.744 150.701 413.143 150.991 413.44C151.28 413.737 151.674 413.909 152.089 413.919C155.629 413.919 155.669 413.919 160.089 413.919H171.999C175.659 413.919 175.669 410.209 174.089 409.869C166.979 408.369 164.209 406.289 161.699 404.309C161.258 403.969 160.716 403.786 160.159 403.789V403.789Z" fill="#18113C"/>
<path opacity="0.2" d="M159.969 389.06L159.459 399.06H152.279L152.829 388.27L159.969 389.06Z" fill="black"/>
<path d="M163.819 234.268C163.819 234.268 169.999 285.998 169.999 308.998C165.129 340.998 160.999 397.158 160.999 397.158L151.119 396.898C151.119 396.898 146.629 335.738 150.789 309.328C145.459 285.668 138.879 231.068 138.879 231.068L163.819 234.268Z" fill="#18113C"/>
<path opacity="0.2" d="M144.77 248.67C143.592 249.188 142.45 249.783 141.35 250.45C142.71 260.66 144.5 273.51 146.4 285.37C149.64 275.61 147.89 254.15 144.77 248.67Z" fill="black"/>
<path d="M74.5293 389.66L80.4193 393.77L90.5793 377.21L84.6893 373.1L74.5293 389.66Z" fill="#FF8B7B"/>
<path d="M81.9092 391.6L76.9092 384.87C76.8139 384.732 76.6684 384.637 76.5039 384.605C76.3393 384.574 76.1689 384.608 76.0292 384.7L69.3292 389C68.9949 389.246 68.7708 389.614 68.7054 390.023C68.6399 390.433 68.7382 390.852 68.9792 391.19C71.0692 394.04 71.1092 394.06 73.7392 397.6C75.3692 399.77 78.6192 404.14 80.8592 407.15C83.0992 410.16 86.0292 407.88 85.3492 406.4C82.3492 399.81 82.3492 396.4 82.4092 393.16C82.4194 392.599 82.2435 392.051 81.9092 391.6V391.6Z" fill="#18113C"/>
<path opacity="0.2" d="M90.5693 377.21L85.3393 385.75L79.0293 382.31L84.6893 373.1L90.5693 377.21Z" fill="black"/>
<path d="M110.659 396.6C105.549 396.6 94.9085 396.6 94.7285 389.08C94.5885 383.18 101.889 380.73 108.189 380.43C108.887 380.396 109.584 380.501 110.242 380.737C110.9 380.973 111.505 381.336 112.022 381.806C112.539 382.276 112.959 382.843 113.257 383.475C113.555 384.107 113.725 384.792 113.759 385.49V385.89C120.899 385.55 125.519 383.99 127.209 381.33C131.019 375.33 123.719 359.84 116.669 344.87C108.369 327.26 98.9685 307.31 98.7885 288.2C98.7819 287.501 98.913 286.808 99.1743 286.16C99.4356 285.512 99.8219 284.922 100.311 284.424C100.801 283.925 101.383 283.528 102.026 283.254C102.669 282.981 103.36 282.837 104.059 282.83V282.83C105.46 282.833 106.804 283.387 107.8 284.373C108.796 285.36 109.363 286.699 109.379 288.1C109.539 304.88 118.379 323.71 126.239 340.33C135.239 359.51 143.089 376.08 136.139 387.03C132.109 393.47 123.759 396.6 110.659 396.6Z" fill="#754FFE"/>
<path d="M155.909 233.25C155.909 233.25 138.849 292.37 130.519 313.81C114.379 341.87 87.5988 384.81 87.5988 384.81L79.0488 379.81C79.0488 379.81 99.0488 330.21 112.499 307.11C116.109 283.11 129.759 229.85 129.759 229.85L155.909 233.25Z" fill="#18113C"/>
<path d="M83.4492 396.429C83.7885 396.99 84.3113 397.418 84.9292 397.639C85.1101 397.682 85.2995 397.674 85.4762 397.616C85.6528 397.558 85.8097 397.451 85.9292 397.309C86.0123 397.232 86.0758 397.137 86.1141 397.031C86.1524 396.925 86.1644 396.811 86.1492 396.699C86.0292 395.499 82.9292 393.939 82.3092 393.639C82.2731 393.624 82.2328 393.623 82.196 393.636C82.1591 393.649 82.1283 393.675 82.1092 393.709C82.0851 393.746 82.0723 393.789 82.0723 393.834C82.0723 393.878 82.0851 393.922 82.1092 393.959C82.4764 394.823 82.9251 395.65 83.4492 396.429V396.429ZM85.5792 396.429C85.6672 396.539 85.7257 396.67 85.7492 396.809C85.754 396.848 85.7492 396.887 85.7353 396.924C85.7214 396.96 85.6987 396.993 85.6692 397.019C85.5885 397.111 85.4849 397.179 85.369 397.218C85.253 397.257 85.1288 397.264 85.0092 397.239C84.3492 397.109 83.4792 396.039 82.6392 394.349C83.7283 394.856 84.7226 395.546 85.5792 396.389V396.429Z" fill="#754FFE"/>
<path d="M82.0583 393.999L82.1183 394.049C83.1183 394.599 85.7183 395.049 86.2883 394.219C86.3839 394.068 86.4305 393.89 86.4215 393.711C86.4126 393.532 86.3486 393.36 86.2383 393.219C85.2383 391.449 82.2383 393.529 82.1083 393.619C82.0785 393.643 82.0547 393.673 82.0391 393.708C82.0234 393.743 82.0163 393.781 82.0183 393.819C82.0142 393.882 82.0281 393.944 82.0583 393.999ZM85.8583 393.419C85.8874 393.454 85.9141 393.491 85.9383 393.529C86.0483 393.719 86.0683 393.859 86.0083 393.939C85.6783 394.419 83.7583 394.249 82.6383 393.809C83.3883 393.359 85.1383 392.449 85.8583 393.419Z" fill="#754FFE"/>
<path d="M164.998 405.44C165.654 405.5 166.31 405.334 166.858 404.97C166.997 404.848 167.1 404.69 167.155 404.514C167.209 404.337 167.214 404.149 167.168 403.97C167.154 403.857 167.114 403.749 167.052 403.654C166.989 403.558 166.906 403.478 166.808 403.42C165.808 402.81 162.678 404.36 162.068 404.68C162.034 404.699 162.007 404.729 161.993 404.766C161.978 404.802 161.977 404.843 161.988 404.88C162.004 404.922 162.029 404.959 162.062 404.989C162.095 405.019 162.135 405.04 162.178 405.05C163.103 405.276 164.047 405.407 164.998 405.44V405.44ZM166.238 403.71C166.381 403.701 166.523 403.732 166.648 403.8C166.698 403.8 166.748 403.87 166.768 403.99C166.795 404.11 166.788 404.234 166.749 404.35C166.71 404.467 166.641 404.57 166.548 404.65C166.058 405.1 164.678 405.16 162.818 404.83C163.869 404.267 165.009 403.888 166.188 403.71H166.238Z" fill="#754FFE"/>
<path d="M162.18 405.099H162.25C163.25 404.639 165.2 402.809 164.88 401.859C164.813 401.702 164.702 401.568 164.559 401.474C164.417 401.379 164.25 401.329 164.08 401.329C162.08 401.099 161.94 404.719 161.93 404.869C161.93 404.909 161.94 404.948 161.959 404.983C161.979 405.018 162.006 405.047 162.04 405.069C162.082 405.093 162.131 405.103 162.18 405.099V405.099ZM163.98 401.699H164.12C164.33 401.699 164.46 401.789 164.49 401.889C164.68 402.439 163.4 403.889 162.37 404.519C162.46 403.649 162.78 401.699 164 401.699H163.98Z" fill="#754FFE"/>
<path d="M129.76 229.9L163.82 234.26C171.5 208.4 174.03 195.91 174.71 189.9C174.89 188.389 174.537 186.863 173.711 185.585C172.886 184.307 171.641 183.357 170.19 182.9C168.19 182.26 165.61 181.5 163.05 180.9C162.18 180.67 161.29 180.46 160.42 180.26C155.321 179.225 150.154 178.557 144.96 178.26C144.19 178.19 143.43 178.15 142.66 178.11C141.15 178.03 139.66 178.01 138.3 178.01C137.279 178.009 136.269 178.22 135.335 178.631C134.4 179.041 133.561 179.642 132.872 180.394C132.182 181.147 131.657 182.035 131.329 183.002C131.002 183.969 130.88 184.993 130.97 186.01C131.24 189.01 131.45 191.8 131.61 194.36C131.99 200.36 132.11 205.16 132.02 209.36C131.815 216.256 131.06 223.124 129.76 229.9V229.9Z" fill="#754FFE"/>
<g opacity="0.3">
<path opacity="0.3" d="M129.76 229.9L163.82 234.26C171.5 208.4 174.03 195.91 174.71 189.9C174.89 188.389 174.537 186.863 173.711 185.585C172.886 184.307 171.641 183.357 170.19 182.9C168.19 182.26 165.61 181.5 163.05 180.9C162.18 180.67 161.29 180.46 160.42 180.26C155.321 179.225 150.154 178.557 144.96 178.26C144.19 178.19 143.43 178.15 142.66 178.11C141.15 178.03 139.66 178.01 138.3 178.01C137.279 178.009 136.269 178.22 135.335 178.631C134.4 179.041 133.561 179.642 132.872 180.394C132.182 181.147 131.657 182.035 131.329 183.002C131.002 183.969 130.88 184.993 130.97 186.01C131.24 189.01 131.45 191.8 131.61 194.36C131.99 200.36 132.11 205.16 132.02 209.36C131.815 216.256 131.06 223.124 129.76 229.9V229.9Z" fill="white"/>
</g>
<path opacity="0.3" d="M132 209.32C136.5 203.5 138.13 196.84 136.67 193.17L131.59 194.31C132 200.29 132.11 205.11 132 209.32Z" fill="#754FFE"/>
<path d="M163.05 180.84C162.17 180.61 161.29 180.4 160.42 180.2C155.317 179.17 150.147 178.502 144.95 178.2C144.18 178.14 143.42 178.1 142.66 178.06L141.33 178L142.33 179.75C142.47 179.99 145.87 185.55 154.33 191.53L156.14 192.79L157.88 191.46C159.556 190.258 160.925 188.678 161.877 186.849C162.829 185.02 163.337 182.992 163.36 180.93L163.05 180.84Z" fill="white"/>
<path d="M148.709 167.919C148.389 172.129 147.399 176.419 144.949 178.219C144.949 178.219 148.069 183.409 156.149 189.079C161.209 185.209 160.419 180.199 160.419 180.199C155.039 178.199 155.419 174.469 157.689 168.519L153.489 166.259C153.127 165.86 152.655 165.576 152.133 165.443C151.61 165.309 151.06 165.333 150.551 165.51C150.041 165.687 149.595 166.009 149.268 166.438C148.94 166.866 148.746 167.381 148.709 167.919V167.919Z" fill="#FF8B7B"/>
<path opacity="0.2" d="M153.49 166.26C153.149 165.884 152.712 165.609 152.225 165.467C151.739 165.324 151.222 165.318 150.733 165.451C150.243 165.583 149.8 165.849 149.452 166.217C149.104 166.586 148.864 167.044 148.76 167.54C150.355 170.757 152.928 173.386 156.11 175.05C156.224 172.795 156.756 170.58 157.68 168.52L153.49 166.26Z" fill="black"/>
<path d="M142.169 154.72C144.259 162.85 144.969 166.33 149.939 169.72C157.409 174.86 166.939 170.52 167.309 161.94C167.659 154.21 164.189 142.21 155.509 140.49C153.593 140.098 151.608 140.204 149.744 140.797C147.881 141.39 146.2 142.45 144.862 143.877C143.525 145.304 142.575 147.049 142.103 148.948C141.632 150.846 141.654 152.833 142.169 154.72V154.72Z" fill="#FF8B7B"/>
<path d="M162.858 142.169C157.962 146.521 152.153 149.723 145.858 151.539C145.858 151.539 152.068 164.749 140.448 161.419C137.078 150.169 140.448 144.329 143.448 141.579C152.688 138.579 159.188 137.579 162.858 142.169Z" fill="#18113C"/>
<path d="M141.779 162.73C142.46 164.203 143.697 165.346 145.219 165.91C147.219 166.63 148.409 164.91 147.979 162.91C147.589 161.12 146.069 158.58 143.979 158.71C143.527 158.748 143.091 158.898 142.711 159.146C142.331 159.394 142.018 159.732 141.801 160.13C141.583 160.528 141.467 160.973 141.463 161.427C141.459 161.881 141.568 162.328 141.779 162.73V162.73Z" fill="#FF8B7B"/>
<path d="M129.509 227.838L127.579 230.688C127.429 230.908 127.679 231.188 128.069 231.238L163.789 235.818C164.099 235.818 164.369 235.738 164.419 235.548L165.119 232.548C165.119 232.338 164.919 232.128 164.589 232.078L130.089 227.658C129.985 227.634 129.877 227.638 129.775 227.67C129.673 227.701 129.581 227.759 129.509 227.838V227.838Z" fill="#754FFE"/>
<path d="M133.64 232.288L132.72 232.168C132.54 232.168 132.41 232.028 132.44 231.918L133.38 228.008C133.416 227.943 133.473 227.891 133.542 227.862C133.611 227.833 133.688 227.828 133.76 227.848L134.69 227.968C134.87 227.968 135 228.098 134.97 228.218L134.03 232.118C134 232.238 133.83 232.308 133.64 232.288Z" fill="#18113C"/>
<path d="M161.15 235.808L160.23 235.698C160.05 235.698 159.92 235.558 159.95 235.438L160.89 231.538C160.89 231.428 161.09 231.348 161.27 231.368L162.2 231.488C162.38 231.488 162.51 231.628 162.48 231.738L161.54 235.648C161.51 235.758 161.34 235.838 161.15 235.808Z" fill="#18113C"/>
<path d="M147.4 234.049L146.48 233.929C146.29 233.929 146.16 233.799 146.19 233.679L147.13 229.779C147.13 229.659 147.33 229.589 147.52 229.609L148.44 229.729C148.62 229.729 148.75 229.869 148.73 229.979L147.78 233.889C147.76 233.999 147.58 234.069 147.4 234.049Z" fill="#18113C"/>
<path d="M156.1 154.369C156.22 155.039 156.68 155.519 157.1 155.429C157.52 155.339 157.79 154.739 157.66 154.069C157.53 153.399 157.07 152.919 156.66 153.009C156.25 153.099 156 153.699 156.1 154.369Z" fill="#18113C"/>
<path d="M163.66 152.92C163.79 153.59 164.25 154.06 164.66 153.98C165.07 153.9 165.35 153.28 165.22 152.61C165.09 151.94 164.63 151.47 164.22 151.55C163.81 151.63 163.54 152.25 163.66 152.92Z" fill="#18113C"/>
<path d="M164 151.63L165.52 150.85C165.52 150.85 165 152.27 164 151.63Z" fill="#18113C"/>
<path d="M161.658 154.42C162.552 155.829 163.632 157.11 164.868 158.23C164.575 158.541 164.217 158.784 163.82 158.941C163.422 159.099 162.995 159.166 162.568 159.14L161.658 154.42Z" fill="#FF5652"/>
<path d="M156.939 161.84C156.909 161.875 156.892 161.919 156.891 161.965C156.889 162.011 156.904 162.056 156.932 162.093C156.961 162.129 157.001 162.155 157.046 162.165C157.091 162.176 157.138 162.17 157.179 162.15C157.935 161.764 158.771 161.563 159.619 161.563C160.467 161.563 161.304 161.764 162.059 162.15C162.105 162.175 162.158 162.183 162.208 162.169C162.259 162.156 162.302 162.124 162.329 162.08C162.357 162.034 162.366 161.98 162.354 161.928C162.343 161.876 162.313 161.83 162.269 161.8C161.454 161.382 160.551 161.164 159.634 161.164C158.718 161.164 157.815 161.382 156.999 161.8C156.999 161.8 156.999 161.82 156.939 161.84Z" fill="#18113C"/>
<path d="M153.488 152.31C153.55 152.272 153.599 152.216 153.628 152.15C153.837 151.694 154.15 151.294 154.543 150.983C154.936 150.672 155.397 150.459 155.888 150.36C155.941 150.354 155.992 150.337 156.038 150.311C156.084 150.285 156.125 150.25 156.158 150.208C156.19 150.166 156.214 150.119 156.228 150.067C156.242 150.016 156.245 149.963 156.238 149.91C156.233 149.858 156.218 149.807 156.193 149.761C156.168 149.715 156.134 149.674 156.093 149.641C156.052 149.609 156.004 149.585 155.954 149.571C155.903 149.557 155.85 149.553 155.798 149.56C155.173 149.677 154.585 149.941 154.082 150.331C153.58 150.72 153.177 151.224 152.908 151.8C152.869 151.879 152.858 151.968 152.875 152.055C152.892 152.141 152.937 152.219 153.003 152.277C153.069 152.335 153.152 152.37 153.24 152.376C153.328 152.382 153.415 152.359 153.488 152.31V152.31Z" fill="#18113C"/>
<path d="M165.908 147.239L165.958 147.189C165.989 147.146 166.01 147.097 166.022 147.045C166.033 146.994 166.035 146.94 166.025 146.888C166.016 146.836 165.996 146.786 165.968 146.742C165.939 146.697 165.902 146.659 165.858 146.629C165.341 146.257 164.743 146.015 164.114 145.921C163.484 145.827 162.841 145.885 162.238 146.089C162.142 146.131 162.066 146.208 162.025 146.305C161.984 146.402 161.981 146.511 162.018 146.609C162.058 146.707 162.135 146.785 162.233 146.826C162.33 146.868 162.44 146.869 162.538 146.829C163.017 146.672 163.527 146.632 164.024 146.712C164.522 146.792 164.993 146.99 165.398 147.289C165.475 147.344 165.569 147.369 165.663 147.36C165.756 147.35 165.844 147.308 165.908 147.239V147.239Z" fill="#18113C"/>
<path d="M156.469 153.079L157.989 152.309C157.989 152.309 157.399 153.719 156.469 153.079Z" fill="#18113C"/>
<path d="M104.11 293.468C102.708 293.468 101.362 292.915 100.366 291.928C99.3696 290.941 98.8033 289.601 98.7901 288.198C98.6501 273.998 103.38 262.008 112.47 253.528C123.66 243.088 141.11 238.238 161.63 239.858C176.02 240.998 185.25 237.498 195.93 233.428C197.69 232.768 199.46 232.088 201.28 231.428C202.606 230.946 204.07 231.01 205.349 231.606C206.628 232.202 207.617 233.282 208.1 234.608C208.583 235.934 208.519 237.398 207.923 238.677C207.326 239.956 206.246 240.946 204.92 241.428C203.15 242.068 201.43 242.728 199.72 243.378C188.83 247.518 177.58 251.788 160.79 250.468C143.29 249.078 128.71 252.928 119.73 261.308C112.73 267.788 109.32 276.798 109.43 288.098C109.437 288.797 109.306 289.49 109.044 290.138C108.783 290.786 108.397 291.376 107.907 291.875C107.418 292.374 106.835 292.771 106.192 293.044C105.549 293.318 104.859 293.462 104.16 293.468H104.11Z" fill="#754FFE"/>
<path d="M227.145 248.941L205.745 256.781C203.96 257.435 201.987 257.353 200.262 256.553C198.537 255.753 197.201 254.3 196.546 252.515L187.709 228.393C187.055 226.607 187.137 224.635 187.937 222.91C188.737 221.185 190.19 219.848 191.975 219.194L213.375 211.354L227.134 248.913L227.145 248.941Z" fill="#754FFE"/>
<path opacity="0.7" d="M227.145 248.941L205.745 256.781C203.96 257.435 201.987 257.353 200.262 256.553C198.537 255.753 197.201 254.3 196.546 252.515L187.709 228.393C187.055 226.607 187.137 224.635 187.937 222.91C188.737 221.185 190.19 219.848 191.975 219.194L213.375 211.354L227.134 248.913L227.145 248.941Z" fill="white"/>
<path opacity="0.2" d="M203.838 214.84L213.388 211.35L227.148 248.93L217.598 252.43C216.963 251.815 216.477 251.062 216.178 250.23L204.178 217.44C203.864 216.611 203.748 215.721 203.838 214.84V214.84Z" fill="#754FFE"/>
<path d="M234.835 220.711L233.896 221.055L236.187 227.308L237.126 226.964L234.835 220.711Z" fill="#754FFE"/>
<path d="M232.449 217.159L229.079 207.939C228.501 206.376 227.458 205.027 226.09 204.074C224.722 203.121 223.096 202.61 221.429 202.609C220.48 202.607 219.539 202.773 218.649 203.099L212.569 205.329L212.219 204.389L218.309 202.159C219.308 201.793 220.364 201.607 221.429 201.609C223.302 201.614 225.128 202.191 226.664 203.263C228.199 204.336 229.37 205.852 230.019 207.609L233.389 216.829L232.449 217.159Z" fill="#754FFE"/>
<path d="M227.311 251.635L236.241 248.405C239.158 247.35 240.668 244.129 239.613 241.211L227.492 207.7C226.436 204.783 223.216 203.273 220.298 204.328L211.368 207.558C208.45 208.614 206.941 211.834 207.996 214.752L220.117 248.263C221.172 251.181 224.393 252.69 227.311 251.635Z" fill="#754FFE"/>
<path d="M222.198 217.87C222.402 218.428 222.436 219.033 222.296 219.61C222.155 220.187 221.847 220.709 221.409 221.111C220.972 221.512 220.425 221.775 219.839 221.865C219.252 221.956 218.651 221.87 218.113 221.619C217.575 221.369 217.124 220.964 216.816 220.456C216.508 219.949 216.358 219.361 216.384 218.768C216.41 218.175 216.612 217.603 216.963 217.124C217.315 216.646 217.8 216.282 218.358 216.08C219.105 215.809 219.929 215.846 220.648 216.181C221.368 216.517 221.926 217.124 222.198 217.87Z" fill="#18113C"/>
<path d="M229.668 238.26C229.871 238.817 229.905 239.422 229.764 239.998C229.623 240.575 229.315 241.096 228.878 241.497C228.441 241.898 227.895 242.161 227.309 242.252C226.723 242.343 226.123 242.258 225.585 242.007C225.047 241.757 224.595 241.353 224.287 240.847C223.979 240.34 223.827 239.753 223.852 239.161C223.877 238.568 224.077 237.996 224.427 237.517C224.777 237.038 225.261 236.674 225.818 236.47C226.189 236.334 226.582 236.273 226.976 236.29C227.37 236.306 227.757 236.4 228.114 236.567C228.472 236.733 228.793 236.968 229.06 237.259C229.327 237.549 229.533 237.889 229.668 238.26V238.26Z" fill="#18113C"/>
<path d="M141.999 235.85L141.919 235.76C140.359 234.2 138.709 232.5 137.219 230.76C135.729 229.02 134.269 227.28 132.939 225.48C131.635 223.724 130.449 221.883 129.389 219.97C128.63 218.601 127.985 217.173 127.459 215.7C128.059 213.7 128.699 211.7 129.459 209.78C130.329 207.47 131.309 205.2 132.379 202.96C133.449 200.72 134.589 198.52 135.819 196.37C136.419 195.29 137.049 194.22 137.699 193.17L138.699 191.63C139.009 191.13 139.379 190.63 139.639 190.2L139.749 190.04C140.46 188.956 140.722 187.639 140.481 186.366C140.239 185.092 139.513 183.963 138.455 183.214C137.397 182.466 136.09 182.158 134.809 182.355C133.528 182.552 132.373 183.238 131.589 184.27C131.089 184.95 130.709 185.49 130.309 186.08C129.909 186.67 129.549 187.26 129.169 187.85C128.439 189.03 127.729 190.22 127.049 191.43C125.696 193.844 124.471 196.327 123.379 198.87C122.819 200.13 122.379 201.42 121.809 202.71C121.239 204 120.859 205.31 120.459 206.65C119.61 209.305 118.912 212.006 118.369 214.74V214.97C118.214 215.699 118.266 216.458 118.519 217.16C119.488 219.724 120.774 222.156 122.349 224.4C123.831 226.529 125.483 228.536 127.289 230.4C129.048 232.195 130.914 233.882 132.879 235.45C134.842 237.015 136.903 238.455 139.049 239.76C139.57 240.064 140.184 240.169 140.776 240.053C141.369 239.937 141.898 239.609 142.266 239.131C142.634 238.653 142.815 238.056 142.775 237.454C142.735 236.852 142.477 236.285 142.049 235.86L141.999 235.85Z" fill="#FF8B7B"/>
<path d="M153.618 240.819L153.488 240.559C153.073 239.693 152.462 238.934 151.704 238.344C150.946 237.754 150.06 237.348 149.118 237.159L141.528 235.619L137.818 237.469C138.218 241.629 144.158 244.119 144.158 244.119L145.848 246.049C146.418 246.696 147.207 247.11 148.063 247.212C148.919 247.313 149.783 247.095 150.488 246.599L152.488 245.169C153.161 244.695 153.643 243.997 153.85 243.201C154.057 242.405 153.975 241.561 153.618 240.819V240.819Z" fill="#FF8B7B"/>
<path d="M135.19 178.65C130.98 180.58 126.5 187.26 126.5 187.26L135.5 204.11C135.5 204.11 145.73 192.32 144.87 186.42C144.17 181.41 140.55 176.19 135.19 178.65Z" fill="#754FFE"/>
<g opacity="0.3">
<path opacity="0.3" d="M135.19 178.65C130.98 180.58 126.5 187.26 126.5 187.26L135.5 204.11C135.5 204.11 145.73 192.32 144.87 186.42C144.17 181.41 140.55 176.19 135.19 178.65Z" fill="white"/>
</g>
<path d="M423.291 399.429C414.481 399.429 405.821 397.619 401.621 392.139C381.741 366.139 381.921 313.839 382.091 263.229C382.191 235.979 384.341 210.229 381.311 190.229C379.531 178.439 373.311 170.349 367.031 166.169C357.711 160.009 344.911 163.319 339.441 164.729C338.76 164.92 338.047 164.972 337.345 164.884C336.643 164.795 335.966 164.568 335.353 164.215C334.74 163.862 334.204 163.39 333.775 162.827C333.347 162.263 333.035 161.621 332.858 160.936C332.682 160.251 332.643 159.537 332.745 158.837C332.847 158.137 333.088 157.465 333.453 156.859C333.819 156.253 334.301 155.726 334.872 155.309C335.444 154.892 336.093 154.593 336.781 154.429C343.611 152.659 359.631 148.529 372.891 157.289C381.841 163.199 389.581 173.749 391.831 188.639C394.981 209.439 392.831 235.569 392.731 263.229C392.561 312.059 392.391 362.549 410.071 385.639C411.501 387.499 417.071 389.169 426.321 388.689C427.141 388.689 427.941 388.599 428.731 388.529C428.373 387.805 428.188 387.007 428.191 386.199C428.191 384.788 428.752 383.435 429.749 382.437C430.747 381.44 432.1 380.879 433.511 380.879C445.141 380.879 451.261 381.879 452.441 387.199C452.781 388.729 452.961 392.569 447.341 395.199C443.141 397.169 433.121 399.429 423.291 399.429Z" fill="#754FFE"/>
<path d="M306.87 404.019L296.02 399.749L301.74 380.939L312.6 385.199L306.87 404.019Z" fill="#FFC3BD"/>
<path d="M295.759 398.599L307.999 403.399C308.154 403.462 308.284 403.575 308.367 403.72C308.45 403.865 308.483 404.034 308.459 404.199L307.259 411.819C307.228 412.004 307.156 412.178 307.048 412.331C306.94 412.484 306.8 412.61 306.637 412.701C306.474 412.792 306.292 412.846 306.106 412.858C305.919 412.869 305.733 412.839 305.559 412.769C302.489 411.499 297.679 409.399 293.789 407.869C291.399 406.929 286.849 405.429 283.539 404.129C280.229 402.829 281.089 399.389 282.539 399.629C289.129 400.689 291.649 399.559 294.279 398.579C294.757 398.397 295.287 398.404 295.759 398.599V398.599Z" fill="#18113C"/>
<path opacity="0.2" d="M312.601 385.209L301.741 380.939L298.791 390.639L309.651 394.909L312.601 385.209Z" fill="black"/>
<path d="M326.17 239.609C326.17 239.609 316.35 288.149 312.6 312.089C308.38 338.919 297.23 387.929 297.23 387.929L311.66 393.599C311.66 393.599 332.27 343.419 335.14 319.119C343.79 299.369 360.99 241.249 360.99 241.249L326.17 239.609Z" fill="#754FFE"/>
<path d="M296.529 388.01L312.369 394.24L315.079 389.44L297.369 382.1L296.529 388.01Z" fill="#18113C"/>
<path d="M292.651 398.809C292.099 398.637 291.62 398.285 291.291 397.809C291.2 397.633 291.152 397.437 291.152 397.239C291.152 397.041 291.2 396.845 291.291 396.669C291.332 396.56 291.402 396.465 291.494 396.395C291.586 396.324 291.696 396.28 291.811 396.269C292.861 396.159 294.811 398.719 295.001 399.019C295.023 399.052 295.034 399.09 295.034 399.129C295.034 399.168 295.023 399.206 295.001 399.239C294.98 399.272 294.95 399.298 294.915 399.314C294.879 399.33 294.84 399.335 294.801 399.329C294.068 399.234 293.347 399.06 292.651 398.809V398.809ZM292.121 396.719C292.041 396.679 291.951 396.662 291.861 396.669C291.801 396.669 291.731 396.669 291.661 396.839C291.595 396.958 291.56 397.093 291.56 397.229C291.56 397.366 291.595 397.5 291.661 397.619C291.951 398.149 292.951 398.619 294.401 398.859C293.792 398 293.017 397.273 292.121 396.719V396.719Z" fill="#754FFE"/>
<path d="M294.781 399.32C294.748 399.309 294.72 399.288 294.701 399.26C294.061 398.5 293.161 396.15 293.701 395.34C293.784 395.214 293.908 395.121 294.052 395.076C294.195 395.03 294.35 395.035 294.491 395.09C294.639 395.128 294.778 395.196 294.899 395.291C295.019 395.386 295.119 395.505 295.191 395.64C295.811 396.75 295.111 399.09 295.081 399.19C295.069 399.226 295.048 399.257 295.02 399.282C294.992 399.306 294.957 399.323 294.921 399.33C294.899 399.341 294.874 399.346 294.849 399.344C294.825 399.342 294.801 399.334 294.781 399.32V399.32ZM294.441 395.5H294.361C294.101 395.44 294.041 395.5 294.011 395.59C293.711 396.07 294.201 397.77 294.771 398.7C295.056 397.775 295.056 396.785 294.771 395.86C294.707 395.704 294.59 395.577 294.441 395.5V395.5Z" fill="#754FFE"/>
<path opacity="0.2" d="M347.34 269C341.9 275.74 339.75 292.92 339.77 307.24C343.44 297.13 347.65 284.29 351.35 272.63L347.34 269Z" fill="black"/>
<path d="M372.171 405.828H360.511L358.961 386.229H370.621L372.171 405.828Z" fill="#FFC3BD"/>
<path d="M359.85 404.85H373C373.169 404.848 373.333 404.905 373.464 405.011C373.595 405.117 373.686 405.265 373.72 405.43L375.39 412.95C375.429 413.133 375.427 413.323 375.382 413.506C375.338 413.688 375.253 413.858 375.134 414.003C375.015 414.148 374.864 414.264 374.694 414.343C374.524 414.423 374.338 414.462 374.15 414.46C370.83 414.4 365.6 414.2 361.42 414.2C358.84 414.2 354.06 414.47 350.51 414.47C346.96 414.47 346.51 410.96 347.94 410.64C354.47 409.21 356.41 407.25 358.49 405.37C358.865 405.037 359.349 404.852 359.85 404.85V404.85Z" fill="#18113C"/>
<path opacity="0.2" d="M370.621 386.229H358.951L359.761 396.339H371.431L370.621 386.229Z" fill="black"/>
<path d="M340.291 240.219C340.291 240.219 346.751 294.309 348.111 313.779C350.001 340.879 357.311 394.379 357.311 394.379H372.811C372.811 394.379 374.471 339.739 371.671 315.429C375.531 294.219 374.311 241.849 374.311 241.849L340.291 240.219Z" fill="#754FFE"/>
<path d="M356.691 394.71H373.711L374.481 389.26L355.311 388.9L356.691 394.71Z" fill="#18113C"/>
<path d="M357.001 406.179C356.425 406.222 355.851 406.071 355.371 405.749C355.222 405.618 355.106 405.454 355.033 405.27C354.96 405.085 354.932 404.886 354.951 404.689C354.951 404.571 354.984 404.455 355.046 404.355C355.107 404.254 355.196 404.173 355.301 404.119C356.241 403.639 358.971 405.319 359.301 405.509C359.336 405.529 359.364 405.558 359.382 405.594C359.399 405.629 359.406 405.67 359.401 405.709C359.392 405.749 359.372 405.786 359.344 405.816C359.316 405.846 359.281 405.868 359.241 405.879C358.508 406.063 357.757 406.164 357.001 406.179ZM355.741 404.429C355.652 404.423 355.562 404.441 355.481 404.479C355.431 404.479 355.371 404.559 355.361 404.709C355.34 404.844 355.354 404.981 355.401 405.109C355.449 405.237 355.528 405.35 355.631 405.439C356.091 405.829 357.201 405.879 358.631 405.589C357.761 405.022 356.79 404.628 355.771 404.429H355.741Z" fill="#754FFE"/>
<path d="M359.201 405.879H359.101C358.231 405.399 356.531 403.549 356.711 402.599C356.741 402.452 356.821 402.319 356.937 402.224C357.054 402.13 357.2 402.078 357.351 402.079C357.502 402.057 357.656 402.069 357.803 402.112C357.949 402.155 358.085 402.229 358.201 402.329C359.201 403.139 359.391 405.579 359.401 405.679C359.403 405.716 359.395 405.752 359.38 405.785C359.364 405.819 359.34 405.847 359.311 405.869C359.275 405.881 359.237 405.885 359.201 405.879V405.879ZM357.491 402.449H357.401C357.141 402.449 357.12 402.609 357.11 402.659C357 403.209 358.111 404.659 358.951 405.279C358.89 404.312 358.541 403.386 357.951 402.619C357.821 402.512 357.659 402.452 357.491 402.449V402.449Z" fill="#754FFE"/>
<path d="M345.64 165.63L336.3 165.51C333.16 165.51 330.04 165.41 326.95 165.36C326.01 165.36 325.09 165.3 324.16 165.26C324.22 165.26 324.26 165.15 324.31 165.1C324.97 164.4 325.63 163.68 326.31 162.99C326.65 162.63 326.984 162.28 327.31 161.94C327.62 161.6 328.02 161.22 328.23 160.94L329.08 159.86C329.75 159.005 330.134 157.961 330.177 156.876C330.221 155.791 329.921 154.72 329.321 153.814C328.722 152.909 327.852 152.216 326.836 151.832C325.82 151.449 324.709 151.396 323.66 151.68L321.81 152.18C321.24 152.35 320.67 152.54 320.1 152.73C318.98 153.12 317.88 153.55 316.79 154.02C314.594 154.99 312.471 156.119 310.44 157.4C308.336 158.744 306.346 160.259 304.49 161.93C302.526 163.716 300.747 165.696 299.18 167.84C298.785 168.375 298.45 168.951 298.18 169.56C297.252 171.688 297.206 174.098 298.054 176.26C298.901 178.422 300.573 180.16 302.7 181.09L303.61 181.49C305.665 182.374 307.793 183.076 309.97 183.59C311.87 184.08 313.67 184.4 315.44 184.7C317.21 185 318.94 185.24 320.66 185.45C322.38 185.66 324.08 185.82 325.78 185.96C329.17 186.26 332.53 186.41 335.88 186.51C339.23 186.61 342.51 186.61 345.99 186.45C348.704 186.334 351.265 185.163 353.128 183.187C354.991 181.21 356.009 178.585 355.965 175.869C355.92 173.153 354.817 170.562 352.891 168.648C350.964 166.733 348.366 165.647 345.65 165.62L345.64 165.63Z" fill="#FFC3BD"/>
<path d="M351.08 183.879C343.01 193.079 323.59 189.639 323.59 189.639L324.66 166.719C331.317 165.254 338.105 164.467 344.92 164.369C356.32 164.349 357.54 176.499 351.08 183.879Z" fill="#18113C"/>
<path d="M329.54 176.83C329.06 180.53 328.54 185.51 328.23 192.21C324.02 213.51 322.45 228.6 326.17 239.61C329.11 243.24 367.42 242.54 374.31 241.84C378.31 231.94 378.73 203.52 379.2 179.63C379.259 176.338 378.136 173.134 376.036 170.599C373.935 168.063 370.996 166.365 367.75 165.81C359.129 164.282 350.334 163.986 341.63 164.93C338.575 165.278 335.724 166.639 333.533 168.796C331.342 170.952 329.936 173.781 329.54 176.83V176.83Z" fill="#18113C"/>
<path opacity="0.2" d="M366.711 191.369C366.841 198.649 372.121 210.279 378.061 216.179C378.421 210.029 378.651 203.359 378.831 196.629L366.711 191.369Z" fill="black"/>
<path d="M400.091 205.519L399.751 204.719C398.353 201.383 396.719 198.152 394.861 195.049C393.081 192.049 391.161 189.219 389.171 186.489C387.181 183.759 385.071 181.149 382.911 178.609C381.811 177.349 380.721 176.089 379.571 174.869L377.841 173.049L376.001 171.189C374.074 169.286 371.481 168.208 368.772 168.184C366.064 168.16 363.452 169.192 361.491 171.06C359.531 172.929 358.374 175.487 358.268 178.194C358.161 180.9 359.113 183.542 360.921 185.559L361.221 185.889L367.091 192.419C369.091 194.639 371.001 196.899 372.901 199.149C373.821 200.279 374.771 201.409 375.631 202.559C376.491 203.709 377.401 204.819 378.261 205.959C379.501 207.689 380.701 209.409 381.771 211.099C381.607 211.952 381.4 212.797 381.151 213.629C380.432 216.051 379.588 218.435 378.621 220.769C377.621 223.239 376.561 225.769 375.461 228.259C374.361 230.749 373.181 233.349 372.131 235.849L372.031 236.069C371.57 237.174 371.5 238.403 371.833 239.553C372.165 240.704 372.88 241.706 373.859 242.395C374.838 243.084 376.023 243.418 377.218 243.343C378.413 243.267 379.546 242.786 380.431 241.979C382.637 239.934 384.73 237.771 386.701 235.499C388.701 233.252 390.578 230.886 392.331 228.399C393.221 227.149 394.071 225.849 394.911 224.499C395.784 223.126 396.581 221.708 397.301 220.249C398.111 218.658 398.812 217.014 399.401 215.329C400.168 213.171 400.6 210.908 400.681 208.619C400.707 207.555 400.506 206.499 400.091 205.519V205.519Z" fill="#FFC3BD"/>
<path d="M368.43 165.94C381.92 168.25 390.71 186.51 390.71 186.51L374.45 204C374.45 204 365.08 194.46 359.45 185.62C353.38 176 358.77 164.3 368.43 165.94Z" fill="#18113C"/>
<path d="M343.791 137.149C341.531 133.359 340.791 128.149 344.931 122.839C344.124 122.941 343.305 122.805 342.574 122.45C341.843 122.095 341.23 121.536 340.811 120.839C345.344 117.131 351.044 115.147 356.901 115.239C369.001 115.239 369.901 119.909 369.491 123.099C377.771 123.629 383.811 145.159 362.821 148.969C350.811 136.319 343.791 137.149 343.791 137.149Z" fill="#18113C"/>
<path d="M368.73 123.489C368.73 123.489 372.1 120.049 367.91 115.889C368.849 116.146 369.706 116.643 370.397 117.33C371.087 118.017 371.588 118.871 371.85 119.809C372.44 122.229 370.81 124.169 368.73 123.489Z" fill="#18113C"/>
<path d="M364.091 146.34C363.771 152.97 363.171 160.51 364.281 165.8C362.561 168.51 358.161 171.63 350.281 172.33C347.481 170.74 343.781 166.85 345.071 164.85C348.421 162.7 349.841 156.19 348.881 151.32L364.091 146.34Z" fill="#FFC3BD"/>
<path opacity="0.2" d="M360.249 147.59L348.859 151.32C349.247 153.394 349.264 155.52 348.909 157.6C352.309 157.49 357.019 154.93 358.789 152.53C359.366 151.855 359.794 151.066 360.046 150.215C360.297 149.364 360.367 148.47 360.249 147.59Z" fill="black"/>
<path d="M367.411 135.839C365.301 143.969 364.481 148.839 359.501 152.249C352.011 157.379 342.591 151.629 342.221 143.039C341.901 135.299 345.401 123.299 354.101 121.589C356.017 121.205 357.999 121.317 359.859 121.914C361.719 122.512 363.396 123.575 364.73 125.003C366.063 126.431 367.01 128.176 367.479 130.072C367.948 131.969 367.925 133.954 367.411 135.839V135.839Z" fill="#FFC3BD"/>
<path d="M365.731 124.199C362.161 126.739 357.731 137.499 366.731 141.819C374.811 134.719 372.721 124.199 365.731 124.199Z" fill="#18113C"/>
<path d="M367.79 125.49C369.32 118.41 351.45 114.75 345.79 123.02C343.87 128 366.71 132.4 367.79 125.49Z" fill="#18113C"/>
<path d="M354.459 144.469C352.603 143.629 350.612 143.125 348.579 142.979C348.551 142.978 348.523 142.984 348.497 142.995C348.47 143.007 348.447 143.023 348.427 143.044C348.408 143.064 348.392 143.088 348.382 143.115C348.372 143.142 348.368 143.17 348.369 143.199C348.381 143.263 348.413 143.322 348.462 143.366C348.511 143.409 348.574 143.435 348.639 143.439C350.588 143.579 352.497 144.06 354.279 144.859C354.335 144.883 354.399 144.885 354.456 144.865C354.514 144.845 354.561 144.803 354.589 144.749C354.6 144.722 354.606 144.693 354.605 144.664C354.605 144.635 354.598 144.606 354.586 144.58C354.574 144.554 354.556 144.53 354.534 144.511C354.512 144.492 354.487 144.477 354.459 144.469V144.469Z" fill="#18113C"/>
<path d="M369.361 144.73C367.912 146.268 365.913 147.17 363.801 147.24C361.001 147.3 360.291 144.63 361.641 142.35C362.861 140.35 365.781 137.79 368.321 138.81C370.861 139.83 371.121 142.82 369.361 144.73Z" fill="#FFC3BD"/>
<path d="M354.479 135.7C354.349 136.37 353.889 136.85 353.479 136.76C353.069 136.67 352.799 136.06 352.929 135.39C353.059 134.72 353.519 134.25 353.929 134.39C354.339 134.53 354.609 135 354.479 135.7Z" fill="#18113C"/>
<path d="M346.91 134.229C346.78 134.899 346.32 135.369 345.91 135.289C345.5 135.209 345.22 134.589 345.35 133.919C345.48 133.249 345.94 132.769 346.35 132.859C346.76 132.949 347 133.559 346.91 134.229Z" fill="#18113C"/>
<path d="M349.25 135C348.05 136.893 346.596 138.612 344.93 140.11C345.93 141.44 348.14 141.18 348.14 141.18L349.25 135Z" fill="#ED847E"/>
<path d="M353.391 131.809C353.462 131.793 353.536 131.796 353.606 131.817C353.676 131.838 353.74 131.876 353.791 131.929C354.112 132.317 354.52 132.623 354.983 132.823C355.445 133.023 355.948 133.111 356.451 133.079C356.557 133.064 356.664 133.092 356.75 133.155C356.836 133.219 356.894 133.313 356.911 133.419C356.919 133.471 356.917 133.524 356.904 133.575C356.892 133.626 356.869 133.674 356.837 133.716C356.805 133.759 356.765 133.794 356.72 133.82C356.674 133.846 356.623 133.863 356.571 133.869C355.936 133.92 355.298 133.819 354.71 133.573C354.122 133.328 353.601 132.946 353.191 132.459C353.153 132.422 353.123 132.379 353.103 132.331C353.083 132.283 353.072 132.231 353.072 132.179C353.072 132.127 353.083 132.075 353.103 132.027C353.123 131.979 353.153 131.935 353.191 131.899C353.25 131.855 353.318 131.824 353.391 131.809V131.809Z" fill="#18113C"/>
<path d="M344.57 129.589C344.487 129.571 344.413 129.525 344.36 129.459C344.326 129.417 344.302 129.369 344.287 129.317C344.272 129.266 344.268 129.212 344.274 129.159C344.281 129.106 344.298 129.054 344.325 129.008C344.352 128.961 344.387 128.921 344.43 128.889C344.921 128.486 345.501 128.206 346.122 128.072C346.743 127.938 347.387 127.954 348 128.119C348.101 128.153 348.185 128.225 348.234 128.321C348.282 128.416 348.292 128.526 348.26 128.629C348.22 128.725 348.146 128.804 348.052 128.85C347.958 128.896 347.851 128.906 347.75 128.879V128.879C347.261 128.754 346.75 128.747 346.258 128.858C345.766 128.969 345.308 129.196 344.92 129.519C344.873 129.561 344.816 129.589 344.755 129.602C344.693 129.614 344.629 129.609 344.57 129.589V129.589Z" fill="#18113C"/>
<path d="M376.85 235.56L368.26 235.5L372.7 245.36C372.7 245.36 380.03 243.79 379.63 239.81L376.85 235.56Z" fill="#FFC3BD"/>
<path d="M363.891 242.27L365.301 245.05C365.68 245.79 366.321 246.362 367.1 246.655C367.879 246.947 368.738 246.938 369.511 246.63L372.701 245.36L368.261 235.5L364.851 238.1C364.226 238.572 363.788 239.248 363.612 240.01C363.437 240.773 363.535 241.573 363.891 242.27Z" fill="#FFC3BD"/>
<path d="M311.461 228.299C310.423 228.289 309.411 227.975 308.549 227.398C307.687 226.82 307.012 226.003 306.607 225.048C306.203 224.092 306.086 223.039 306.271 222.018C306.457 220.997 306.936 220.052 307.651 219.299C311.471 215.359 314.921 212.299 317.961 209.629C325.301 203.159 327.831 200.629 327.591 195.779C327.231 192.787 326.595 189.834 325.691 186.959C323.501 178.909 321.021 169.799 325.271 162.489C327.551 158.559 331.421 155.869 336.781 154.489C338.136 154.168 339.563 154.391 340.756 155.11C341.949 155.829 342.812 156.987 343.16 158.335C343.508 159.684 343.314 161.115 342.618 162.322C341.923 163.529 340.782 164.415 339.441 164.789C335.671 165.789 334.761 167.319 334.441 167.839C332.441 171.289 334.371 178.429 335.931 184.159C337.06 187.773 337.817 191.492 338.191 195.259C338.691 205.509 332.641 210.849 324.971 217.609C322.081 220.169 318.791 223.069 315.251 226.709C314.757 227.214 314.167 227.615 313.516 227.888C312.865 228.161 312.166 228.301 311.461 228.299V228.299Z" fill="#754FFE"/>
<path d="M323.131 151.9L331.451 149.77L329.511 160.41C329.511 160.41 322.021 160.64 321.461 156.69L323.131 151.9Z" fill="#FFC3BD"/>
<path d="M337.29 155.41L336.65 158.19C336.453 159.039 335.946 159.784 335.228 160.278C334.51 160.772 333.633 160.979 332.77 160.86L329.51 160.41L331.45 149.77L335.27 151.42C336.02 151.743 336.634 152.319 337.003 153.048C337.372 153.778 337.474 154.613 337.29 155.41Z" fill="#FFC3BD"/>
<path d="M308.486 210.801L308.259 210.575C307.248 209.564 305.608 209.564 304.597 210.576L275.108 240.074C274.097 241.086 274.097 242.726 275.109 243.737L275.335 243.963C276.347 244.975 277.987 244.974 278.998 243.963L308.486 214.464C309.498 213.453 309.497 211.813 308.486 210.801Z" fill="#18113C"/>
<path d="M323.855 226.151L323.628 225.925C322.617 224.914 320.977 224.914 319.965 225.925L290.472 255.419C289.461 256.43 289.461 258.07 290.472 259.081L290.698 259.308C291.71 260.319 293.35 260.319 294.361 259.308L323.855 229.814C324.866 228.803 324.866 227.163 323.855 226.151Z" fill="#18113C"/>
<path d="M284.412 221.783L305.194 201.001C305.86 200.336 306.65 199.807 307.52 199.447C308.39 199.087 309.322 198.901 310.264 198.901C311.206 198.901 312.138 199.087 313.008 199.447C313.878 199.807 314.668 200.336 315.334 201.001L333.499 219.167C334.165 219.833 334.693 220.623 335.054 221.493C335.414 222.363 335.6 223.295 335.6 224.237C335.6 225.178 335.414 226.111 335.054 226.981C334.693 227.851 334.165 228.641 333.499 229.307L312.718 250.089L284.412 221.783Z" fill="#754FFE"/>
<path opacity="0.7" d="M284.412 221.783L305.194 201.001C305.86 200.336 306.65 199.807 307.52 199.447C308.39 199.087 309.322 198.901 310.264 198.901C311.206 198.901 312.138 199.087 313.008 199.447C313.878 199.807 314.668 200.336 315.334 201.001L333.499 219.167C334.165 219.833 334.693 220.623 335.054 221.493C335.414 222.363 335.6 223.295 335.6 224.237C335.6 225.178 335.414 226.111 335.054 226.981C334.693 227.851 334.165 228.641 333.499 229.307L312.718 250.089L284.412 221.783Z" fill="white"/>
<path opacity="0.2" d="M291.581 214.559L284.381 221.749L312.691 250.059L319.881 242.859C319.595 242.021 319.119 241.262 318.491 240.639L293.801 215.999C293.183 215.352 292.423 214.859 291.581 214.559V214.559Z" fill="#754FFE"/>
<path d="M283.166 218.123L282.65 218.639C280.455 220.834 280.455 224.392 282.65 226.587L307.858 251.796C310.053 253.99 313.611 253.99 315.806 251.796L316.322 251.279C318.517 249.085 318.517 245.526 316.322 243.332L291.114 218.123C288.919 215.928 285.361 215.928 283.166 218.123Z" fill="#754FFE"/>
<path d="M361.519 37.9609H138.479C133.828 37.9609 130.059 41.7307 130.059 46.3809V87.0609C130.059 91.7112 133.828 95.4809 138.479 95.4809H361.519C366.169 95.4809 369.939 91.7112 369.939 87.0609V46.3809C369.939 41.7307 366.169 37.9609 361.519 37.9609Z" fill="white"/>
<path d="M361.519 96.2207H138.519C136.091 96.2181 133.762 95.2521 132.045 93.5349C130.328 91.8176 129.362 89.4893 129.359 87.0607V46.3807C129.362 43.9521 130.328 41.6238 132.045 39.9065C133.762 38.1893 136.091 37.2234 138.519 37.2207H361.519C363.948 37.2234 366.276 38.1893 367.994 39.9065C369.711 41.6238 370.677 43.9521 370.679 46.3807V87.0607C370.677 89.4893 369.711 91.8176 367.994 93.5349C366.276 95.2521 363.948 96.2181 361.519 96.2207ZM138.519 38.7007C136.483 38.7033 134.531 39.5133 133.092 40.953C131.652 42.3928 130.842 44.3447 130.839 46.3807V87.0607C130.842 89.0967 131.652 91.0487 133.092 92.4884C134.531 93.9281 136.483 94.7381 138.519 94.7407H361.519C363.555 94.7381 365.507 93.9281 366.947 92.4884C368.387 91.0487 369.197 89.0967 369.199 87.0607V46.3807C369.197 44.3447 368.387 42.3928 366.947 40.953C365.507 39.5133 363.555 38.7033 361.519 38.7007H138.519Z" fill="#18113C"/>
<g opacity="0.4">
<path opacity="0.4" d="M149.779 76.7199V55.0799H157.939C159.043 55.0591 160.146 55.126 161.239 55.2799C162.191 55.4172 163.102 55.7583 163.909 56.2799C164.658 56.8139 165.255 57.5344 165.639 58.3699C166.223 59.6097 166.43 60.9936 166.234 62.3499C166.039 63.7062 165.449 64.9753 164.539 65.9999C163.373 67.2665 161.259 67.9032 158.199 67.9099H152.639V76.7099L149.779 76.7199ZM152.639 65.3699H158.239C159.629 65.512 161.025 65.1578 162.179 64.3699C162.576 64.0029 162.887 63.5525 163.09 63.0511C163.292 62.5497 163.381 62.0096 163.349 61.4699C163.373 60.6396 163.131 59.8235 162.659 59.1399C162.224 58.5148 161.584 58.062 160.849 57.8599C159.968 57.7032 159.073 57.6395 158.179 57.6699H152.639V65.3699Z" fill="#18113C"/>
<path opacity="0.4" d="M179.839 74.7898C178.996 75.5316 178.037 76.1296 176.999 76.5598C176.061 76.9044 175.069 77.0772 174.069 77.0698C172.625 77.1704 171.196 76.7202 170.069 75.8098C169.619 75.4058 169.262 74.9083 169.024 74.3522C168.786 73.7961 168.671 73.1946 168.689 72.5898C168.68 71.8536 168.859 71.1272 169.209 70.4799C169.554 69.8871 170.029 69.3808 170.599 68.9998C171.19 68.6107 171.838 68.317 172.519 68.1298C173.298 67.9509 174.086 67.8173 174.879 67.7299C176.485 67.5836 178.073 67.2788 179.619 66.8198C179.619 66.4598 179.619 66.2198 179.619 66.1298C179.664 65.7168 179.62 65.299 179.491 64.9042C179.361 64.5094 179.15 64.1466 178.869 63.8398C178.011 63.187 176.945 62.8673 175.869 62.9398C174.901 62.8697 173.935 63.0964 173.099 63.5898C172.411 64.1969 171.946 65.0173 171.779 65.9198L169.179 65.5598C169.359 64.5855 169.759 63.6653 170.349 62.8698C170.969 62.1327 171.783 61.5851 172.699 61.2898C173.845 60.9016 175.05 60.7155 176.259 60.7398C177.365 60.7019 178.469 60.8611 179.519 61.2098C180.204 61.4042 180.818 61.7897 181.291 62.3211C181.764 62.8524 182.076 63.5076 182.189 64.2098C182.3 65.0215 182.344 65.841 182.319 66.6599V70.1998C182.28 71.7652 182.337 73.3314 182.489 74.8898C182.61 75.5484 182.836 76.1833 183.159 76.7698H180.389C180.085 76.1495 179.899 75.4782 179.839 74.7898ZM179.619 68.8498C178.217 69.3527 176.76 69.6884 175.279 69.8498C174.487 69.9348 173.708 70.1162 172.959 70.3898C172.53 70.5638 172.164 70.8637 171.909 71.2498C171.615 71.7207 171.497 72.2811 171.578 72.8307C171.658 73.3804 171.932 73.8834 172.349 74.2498C173.017 74.7701 173.855 75.0231 174.699 74.9598C175.652 74.9781 176.593 74.7472 177.429 74.2898C178.194 73.8755 178.809 73.2321 179.189 72.4498C179.516 71.6063 179.663 70.7035 179.619 69.7999V68.8498Z" fill="#18113C"/>
<path opacity="0.4" d="M185.939 77.9997L188.519 78.3797C188.542 78.7159 188.634 79.0438 188.789 79.3431C188.943 79.6424 189.158 79.9068 189.419 80.1197C190.214 80.6558 191.162 80.9158 192.119 80.8597C193.124 80.9254 194.123 80.6659 194.969 80.1197C195.648 79.6118 196.129 78.8834 196.329 78.0597C196.508 76.9324 196.572 75.7898 196.519 74.6497C195.995 75.2903 195.332 75.8032 194.58 76.1497C193.828 76.4962 193.007 76.6672 192.179 76.6497C191.219 76.6972 190.262 76.5098 189.391 76.1038C188.519 75.6978 187.76 75.0854 187.179 74.3197C185.976 72.7047 185.349 70.7329 185.399 68.7197C185.384 67.2979 185.663 65.8883 186.219 64.5797C186.697 63.393 187.515 62.3738 188.569 61.6497C189.651 60.9576 190.916 60.609 192.199 60.6497C193.083 60.638 193.958 60.8346 194.752 61.2238C195.546 61.613 196.237 62.1837 196.769 62.8897V60.9997H199.219V74.5897C199.328 76.352 199.076 78.1179 198.479 79.7797C197.965 80.8164 197.135 81.6635 196.109 82.1997C194.873 82.8287 193.496 83.1316 192.109 83.0797C190.5 83.1561 188.909 82.7145 187.569 81.8197C186.994 81.3749 186.543 80.7904 186.257 80.1218C185.972 79.4531 185.862 78.7226 185.939 77.9997V77.9997ZM188.129 68.5797C187.992 70.1781 188.428 71.7732 189.359 73.0797C189.731 73.5328 190.2 73.8959 190.731 74.1418C191.263 74.3878 191.844 74.5101 192.429 74.4997C193.014 74.5077 193.592 74.3853 194.123 74.1414C194.655 73.8975 195.125 73.5382 195.499 73.0897C196.432 71.8142 196.873 70.2444 196.739 68.6697C196.858 67.1151 196.403 65.571 195.459 64.3297C195.09 63.8709 194.623 63.5014 194.091 63.2486C193.56 62.9958 192.978 62.8663 192.389 62.8697C191.813 62.8679 191.244 62.9965 190.724 63.2458C190.205 63.4952 189.748 63.8589 189.389 64.3097C188.464 65.54 188.016 67.0643 188.129 68.5997V68.5797Z" fill="#18113C"/>
<path opacity="0.4" d="M213.999 71.6707L216.749 72.0107C216.388 73.4926 215.539 74.8101 214.339 75.7507C213.029 76.6736 211.45 77.1376 209.849 77.0707C208.841 77.1315 207.832 76.9785 206.888 76.6218C205.943 76.265 205.085 75.7126 204.369 75.0007C202.947 73.3567 202.229 71.2197 202.369 69.0507C202.22 66.8228 202.936 64.6235 204.369 62.9107C205.043 62.1919 205.862 61.6255 206.773 61.2495C207.684 60.8736 208.664 60.6966 209.649 60.7307C210.609 60.6974 211.565 60.8713 212.452 61.2406C213.339 61.6099 214.136 62.1658 214.789 62.8707C216.204 64.5379 216.921 66.6876 216.789 68.8707C216.789 69.0307 216.789 69.2707 216.789 69.5807H205.099C205.08 71.0477 205.6 72.4707 206.559 73.5807C206.979 74.0266 207.488 74.3791 208.053 74.6151C208.618 74.8512 209.227 74.9655 209.839 74.9507C210.731 74.9732 211.605 74.7027 212.329 74.1807C213.128 73.5331 213.71 72.6576 213.999 71.6707V71.6707ZM205.279 67.3807H213.999C213.976 66.3027 213.627 65.2568 212.999 64.3807C212.606 63.886 212.103 63.4893 211.53 63.2221C210.958 62.9548 210.331 62.8243 209.699 62.8407C209.131 62.8267 208.565 62.9285 208.037 63.14C207.51 63.3514 207.03 63.6681 206.629 64.0707C205.755 64.9519 205.26 66.1396 205.249 67.3807H205.279Z" fill="#18113C"/>
<path opacity="0.4" d="M228.449 76.7202V61.0002H230.839V63.2302C231.375 62.4008 232.118 61.7262 232.995 61.2736C233.873 60.8209 234.853 60.606 235.839 60.6502C236.735 60.6394 237.623 60.813 238.449 61.1602C239.154 61.4312 239.77 61.8915 240.229 62.4902C240.642 63.0918 240.925 63.773 241.059 64.4902C241.174 65.3452 241.221 66.2079 241.199 67.0702V76.7102H238.549V67.1802C238.582 66.3586 238.477 65.5372 238.239 64.7502C238.024 64.2139 237.637 63.7639 237.139 63.4702C236.576 63.1413 235.932 62.9752 235.279 62.9902C234.202 62.9703 233.156 63.3558 232.349 64.0702C231.529 64.7902 231.119 66.1502 231.119 68.1602V76.7202H228.449Z" fill="#18113C"/>
<path opacity="0.4" d="M244.28 68.8803C244.28 65.9803 245.087 63.8303 246.7 62.4303C248.072 61.2615 249.828 60.6417 251.63 60.6903C252.609 60.6543 253.586 60.8244 254.495 61.1896C255.405 61.5548 256.227 62.1069 256.91 62.8103C257.631 63.5967 258.187 64.5195 258.546 65.5241C258.905 66.5288 259.059 67.5951 259 68.6603C259.074 70.2963 258.763 71.9269 258.09 73.4203C257.497 74.5594 256.578 75.496 255.45 76.1103C254.294 76.7645 252.988 77.109 251.66 77.1103C250.67 77.1575 249.681 76.9938 248.758 76.6301C247.836 76.2663 247.001 75.7108 246.31 75.0003C245.586 74.1636 245.034 73.1924 244.686 72.1423C244.338 71.0922 244.2 69.9837 244.28 68.8803V68.8803ZM247.01 68.8803C246.889 70.4923 247.354 72.0938 248.32 73.3903C248.725 73.8711 249.233 74.2553 249.805 74.5148C250.378 74.7743 251.001 74.9026 251.63 74.8903C252.257 74.9027 252.878 74.7734 253.448 74.5119C254.018 74.2504 254.521 73.8636 254.92 73.3803C255.901 72.0602 256.369 70.4295 256.24 68.7903C256.357 67.2095 255.883 65.6416 254.91 64.3903C254.499 63.9209 253.992 63.5447 253.424 63.287C252.856 63.0293 252.239 62.896 251.615 62.896C250.991 62.896 250.374 63.0293 249.806 63.287C249.238 63.5447 248.731 63.9209 248.32 64.3903C247.351 65.678 246.882 67.2732 247 68.8803H247.01Z" fill="#18113C"/>
<path opacity="0.4" d="M267.879 74.3405L268.269 76.6905C267.612 76.8394 266.942 76.9198 266.269 76.9305C265.495 76.9686 264.725 76.8104 264.029 76.4705C263.535 76.2003 263.139 75.7801 262.899 75.2705C262.623 74.248 262.515 73.1876 262.579 72.1305V63.1305H260.629V61.0005H262.579V57.1605L265.219 55.5605V61.0005H267.889V63.0705H265.219V72.2405C265.19 72.7315 265.238 73.2239 265.359 73.7005C265.456 73.9142 265.616 74.0924 265.819 74.2105C266.098 74.3592 266.413 74.4284 266.729 74.4105C267.113 74.4129 267.498 74.3895 267.879 74.3405Z" fill="#18113C"/>
<path opacity="0.4" d="M279.52 76.7204V63.1104H277.17V61.0004H279.52V59.3704C279.48 58.5703 279.575 57.7692 279.8 57.0004C280.053 56.307 280.527 55.7164 281.15 55.3204C281.971 54.8467 282.913 54.6242 283.86 54.6804C284.693 54.6909 285.523 54.7779 286.34 54.9404L285.94 57.2604C285.422 57.1633 284.897 57.1131 284.37 57.1104C283.754 57.0528 283.14 57.2396 282.66 57.6304C282.265 58.1918 282.087 58.8777 282.16 59.5604V61.0004H285.22V63.0704H282.16V76.7204H279.52Z" fill="#18113C"/>
<path opacity="0.4" d="M286.29 68.8803C286.29 65.9803 287.096 63.8303 288.71 62.4303C290.086 61.2617 291.845 60.6421 293.65 60.6903C294.629 60.6543 295.605 60.8244 296.515 61.1896C297.424 61.5548 298.247 62.1069 298.93 62.8103C299.647 63.5984 300.2 64.5218 300.555 65.5264C300.911 66.531 301.062 67.5964 301 68.6603C301.077 70.2955 300.768 71.926 300.1 73.4203C299.506 74.5623 298.583 75.4995 297.45 76.1103C296.297 76.7646 294.995 77.1091 293.67 77.1103C292.68 77.1537 291.692 76.9882 290.77 76.6247C289.848 76.2612 289.014 75.7077 288.32 75.0003C287.596 74.1636 287.044 73.1924 286.696 72.1423C286.347 71.0922 286.209 69.9837 286.29 68.8803V68.8803ZM289.03 68.8803C288.903 70.4929 289.369 72.0963 290.34 73.3903C290.75 73.8628 291.257 74.2417 291.826 74.5014C292.396 74.7611 293.014 74.8955 293.64 74.8955C294.266 74.8955 294.884 74.7611 295.453 74.5014C296.023 74.2417 296.53 73.8628 296.94 73.3903C297.913 72.0668 298.378 70.4378 298.25 68.8003C298.365 67.2213 297.895 65.6552 296.93 64.4003C296.519 63.9309 296.012 63.5547 295.444 63.297C294.876 63.0393 294.259 62.906 293.635 62.906C293.011 62.906 292.394 63.0393 291.826 63.297C291.258 63.5547 290.751 63.9309 290.34 64.4003C289.362 65.6804 288.886 67.2735 289 68.8803H289.03Z" fill="#18113C"/>
<path opacity="0.4" d="M314.369 76.72V74.42C313.836 75.2567 313.095 75.9408 312.219 76.4053C311.342 76.8698 310.36 77.0988 309.369 77.07C308.478 77.081 307.594 76.9002 306.779 76.54C306.078 76.2624 305.464 75.8033 304.999 75.21C304.586 74.6097 304.306 73.9277 304.179 73.21C304.049 72.39 303.996 71.5598 304.019 70.73V61H306.679V69.7C306.646 70.6363 306.7 71.5735 306.839 72.5C306.982 73.1598 307.358 73.7458 307.899 74.15C308.482 74.5625 309.185 74.7732 309.899 74.75C310.688 74.7503 311.462 74.536 312.139 74.13C312.81 73.7574 313.335 73.1689 313.629 72.46C313.961 71.4756 314.107 70.4379 314.059 69.4V61H316.719V76.72H314.369Z" fill="#18113C"/>
<path opacity="0.4" d="M320.91 76.7202V61.0002H323.3V63.2302C323.836 62.4008 324.579 61.7262 325.456 61.2736C326.333 60.8209 327.314 60.606 328.3 60.6502C329.196 60.6394 330.084 60.813 330.91 61.1602C331.615 61.4312 332.231 61.8915 332.69 62.4902C333.103 63.0918 333.386 63.773 333.52 64.4902C333.635 65.3452 333.682 66.2079 333.66 67.0702V76.7102H331V67.1802C331.033 66.3586 330.928 65.5372 330.69 64.7502C330.475 64.2139 330.088 63.7639 329.59 63.4702C329.026 63.1413 328.383 62.9752 327.73 62.9902C326.653 62.9723 325.608 63.3575 324.8 64.0702C323.98 64.7902 323.57 66.1502 323.57 68.1602V76.7202H320.91Z" fill="#18113C"/>
<path opacity="0.4" d="M347.899 76.7201V74.7201C347.444 75.4668 346.796 76.0773 346.024 76.4872C345.252 76.8972 344.383 77.0916 343.509 77.0501C342.289 77.0673 341.091 76.7191 340.069 76.0501C338.999 75.3365 338.154 74.3345 337.629 73.1601C337.035 71.8234 336.742 70.3726 336.769 68.9101C336.748 67.4527 337.013 66.0055 337.549 64.6501C338.003 63.4492 338.825 62.4232 339.899 61.7201C340.941 61.0474 342.159 60.6994 343.399 60.7201C344.276 60.7047 345.143 60.9111 345.919 61.3201C346.633 61.6885 347.249 62.2194 347.719 62.8701V55.0801H350.359V76.7201H347.899ZM339.499 68.9001C339.378 70.503 339.828 72.097 340.769 73.4001C341.124 73.8589 341.579 74.2314 342.098 74.4894C342.618 74.7475 343.189 74.8845 343.769 74.8901C344.345 74.896 344.915 74.7703 345.435 74.5225C345.955 74.2746 346.411 73.9112 346.769 73.4601C347.673 72.202 348.102 70.6643 347.979 69.1201C348.116 67.4482 347.679 65.7797 346.739 64.3901C346.382 63.9205 345.921 63.5404 345.391 63.2801C344.862 63.0197 344.279 62.8862 343.689 62.8901C343.111 62.8784 342.539 63.0026 342.018 63.2527C341.497 63.5028 341.042 63.8719 340.689 64.3301C339.784 65.6737 339.365 67.2857 339.499 68.9001V68.9001Z" fill="#18113C"/>
</g>
<path d="M249.999 125.031C260.238 125.031 268.539 116.731 268.539 106.491C268.539 96.2518 260.238 87.9512 249.999 87.9512C239.76 87.9512 231.459 96.2518 231.459 106.491C231.459 116.731 239.76 125.031 249.999 125.031Z" fill="#18113C"/>
<path d="M249.999 122.271C258.714 122.271 265.779 115.206 265.779 106.491C265.779 97.7759 258.714 90.7109 249.999 90.7109C241.284 90.7109 234.219 97.7759 234.219 106.491C234.219 115.206 241.284 122.271 249.999 122.271Z" fill="white"/>
<path d="M260.67 103.091H253.27L259.48 84.7207L239.33 109.891H246.73L240.52 128.261L260.67 103.091Z" fill="#754FFE"/>
<path d="M261.302 119.993L263.508 117.787L238.695 92.9747L236.489 95.1809L261.302 119.993Z" fill="#18113C"/>
</svg>
